<svg xmlns="http://www.w3.org/2000/svg" xmlns:xlink="http://www.w3.org/1999/xlink" viewBox="0 0 500 180"><defs><style>.cls-1{fill:url(#radial-gradient);}.cls-2{fill:#603a58;}.cls-3{fill:#4f2f47;}.cls-4{fill:#42293a;}.cls-5{fill:#3a2534;}.cls-6{fill:url(#radial-gradient-2);}.cls-7{fill:#77252d;}.cls-8{fill:#33212f;}.cls-9{fill:#2b1b28;}.cls-10{fill:#281924;}</style><radialGradient id="radial-gradient" cx="67.33" cy="90" r="65.28" gradientUnits="userSpaceOnUse"><stop offset="0" stop-color="#bc5383"/><stop offset="1" stop-color="#603a58"/></radialGradient><radialGradient id="radial-gradient-2" cx="270.27" cy="87.79" r="47.42" gradientTransform="matrix(0.98, -0.02, 0.01, 0.77, 4.12, 24.14)" gradientUnits="userSpaceOnUse"><stop offset="0" stop-color="#3a2534"/><stop offset="0.15" stop-color="#3f2737"/><stop offset="0.33" stop-color="#4e2c40"/><stop offset="0.53" stop-color="#66354f"/><stop offset="0.74" stop-color="#884063"/><stop offset="0.96" stop-color="#b3507d"/><stop offset="1" stop-color="#bc5383"/></radialGradient></defs><title>Artboard 3</title><g id="xenking"><path class="cls-1" d="M16.53,139.93,51.82,84.82,23,39.24a16.32,16.32,0,0,1-2.86-9.12q0-6.82,3.84-11A12.65,12.65,0,0,1,33.64,15q6.95,0,11.58,7.67l22.1,36.46L89.43,22.67Q94.05,15,101,15a12.65,12.65,0,0,1,9.71,4.14q3.84,4.16,3.84,11a16.4,16.4,0,0,1-2.86,9.12L82.83,84.82l35.29,55.11a19.3,19.3,0,0,1,3,10.57A14.59,14.59,0,0,1,117.32,161a12.83,12.83,0,0,1-9.71,4q-6.78,0-11.06-6.84L67.32,110.93,38.1,158.16q-4.29,6.84-11,6.84a12.83,12.83,0,0,1-9.72-4A14.59,14.59,0,0,1,13.5,150.5,19.3,19.3,0,0,1,16.53,139.93Z"/><path class="cls-2" d="M118.09,151c3.06-2.87-.63-12-.63-12l.66,1a19.3,19.3,0,0,1,3,10.57A14.59,14.59,0,0,1,117.32,161a12.83,12.83,0,0,1-9.71,4q-6.78,0-11.06-6.84L67.32,110.93S108.91,158.27,118.09,151ZM26.32,32.85c-4.08,1-.07,11.62-.07,11.62v0L23,39.24a16.32,16.32,0,0,1-2.86-9.12q0-6.82,3.84-11A12.65,12.65,0,0,1,33.64,15q6.95,0,11.58,7.67l22.1,36.46S36.52,30.81,26.32,32.85Z"/><path class="cls-2" d="M47.11,143.59h0l-9,14.57q-4.29,6.84-11,6.84a12.83,12.83,0,0,1-9.72-4A14.59,14.59,0,0,1,13.5,150.5a19.3,19.3,0,0,1,3-10.57L51.82,84.82S28.93,137.91,34,145.43C37.54,150.12,47.11,143.59,47.11,143.59ZM98.72,24.7c-3.06-5.1-11.52,1.64-11.52,1.64h0c.15-.27,2.22-3.66,2.22-3.66Q94.05,15,101,15a12.65,12.65,0,0,1,9.71,4.14q3.84,4.16,3.84,11a16.4,16.4,0,0,1-2.86,9.12L82.83,84.82S102.8,33.87,98.72,24.7Z"/><path class="cls-3" d="M167.52,99H127.35a14,14,0,0,0,5.88,10.14,20.26,20.26,0,0,0,11.91,3.47q5.37,0,12.44-3.79t8.9-3.8a7.21,7.21,0,0,1,5.36,2.49,8,8,0,0,1,2.36,5.62q0,5.9-10,10.93a45.62,45.62,0,0,1-20.75,5q-15.7,0-25.52-10.21t-9.81-26a37.39,37.39,0,0,1,9.62-25.65,32.41,32.41,0,0,1,48.35-.07q9.69,10.8,9.69,23.49Q175.77,99,167.52,99ZM127,87h30a17.32,17.32,0,0,0-4.71-10.4,15,15,0,0,0-20.55.13A16.72,16.72,0,0,0,127,87Z"/><path class="cls-4" d="M183,118V67.83a10.83,10.83,0,0,1,2.62-7.59,8.75,8.75,0,0,1,6.8-2.88q7.59,0,8.63,6.94,5.49-7.72,18.18-7.72,11.39,0,18.58,6.8T245,82V118a10.91,10.91,0,0,1-2.64,7.65,9.54,9.54,0,0,1-13.72,0A10.91,10.91,0,0,1,226,118V85.14q0-6.19-3.42-9.48a12.06,12.06,0,0,0-8.71-3.29A11,11,0,0,0,205.16,76,13.41,13.41,0,0,0,202,85.14V118a10.91,10.91,0,0,1-2.64,7.65,9.56,9.56,0,0,1-13.72,0A10.91,10.91,0,0,1,183,118Z"/><path class="cls-5" d="M256,117.9V37.29a11.16,11.16,0,0,1,2.5-7.6,8.8,8.8,0,0,1,13,0,11.16,11.16,0,0,1,2.5,7.6v44l19.75-20q4-4.07,8.12-4.06a6.8,6.8,0,0,1,5.44,2.62,8.93,8.93,0,0,1,2.19,5.88,10,10,0,0,1-3.5,7.46L290,88.06,311.12,114a9.57,9.57,0,0,1,2.25,6.3,9.06,9.06,0,0,1-2.34,6.09,8,8,0,0,1-6.16,2.79q-4.12,0-8.62-5.76l-22-28.4H274v22.9a11.13,11.13,0,0,1-2.5,7.59,8.78,8.78,0,0,1-13,0A11.13,11.13,0,0,1,256,117.9Z"/><path class="cls-6" d="M266.54,87.36c.15,21,7.33,30.58,7.33,30.58a10.21,10.21,0,0,1-2.37,7.55,8.78,8.78,0,0,1-13,0,11.13,11.13,0,0,1-2.5-7.59s9.44-13.33,9.44-30c0-22.71-9.44-50.64-9.44-50.64a11.16,11.16,0,0,1,2.5-7.6,8.8,8.8,0,0,1,13,0,11.16,11.16,0,0,1,2.5,7.6S266.4,68.8,266.54,87.36Z"/><path class="cls-7" d="M322.41,32.23a10.28,10.28,0,0,1,14.79,0,9.82,9.82,0,0,1,3.2,7.2,10.64,10.64,0,0,1-3.07,7.65A10.21,10.21,0,0,1,322.41,47a10.51,10.51,0,0,1-3.21-7.59A9.79,9.79,0,0,1,322.41,32.23Z"/><path class="cls-8" d="M322,117V69a10.31,10.31,0,0,1,2.5-7.24,9,9,0,0,1,13,0A10.31,10.31,0,0,1,340,69v48a10.37,10.37,0,0,1-2.5,7.25,9.06,9.06,0,0,1-13,0A10.37,10.37,0,0,1,322,117Z"/><path class="cls-9" d="M350,117.76V67.83a10.83,10.83,0,0,1,2.62-7.59,8.75,8.75,0,0,1,6.8-2.88q7.57,0,8.63,6.94,5.49-7.72,18.18-7.72,11.38,0,18.58,6.8T412,82v36.37a10.34,10.34,0,0,1-2.5,7.25,9.06,9.06,0,0,1-13,0,10.34,10.34,0,0,1-2.5-7.25V85.14q0-6.19-3.42-9.48a12.06,12.06,0,0,0-8.71-3.29A11,11,0,0,0,373.16,76,13.41,13.41,0,0,0,370,85.14v32.62a11.54,11.54,0,0,1-2.78,8.06,10.07,10.07,0,0,1-14.44,0A11.5,11.5,0,0,1,350,117.76Z"/><path class="cls-10" d="M487,68.39v54.44q0,16.5-9.37,25.26t-25.25,8.77a56,56,0,0,1-10.69-1.24,37,37,0,0,1-11.94-4.72q-5.75-3.47-5.75-8.18a8.55,8.55,0,0,1,2.31-5.49q2.31-2.74,4.94-2.75,2.25,0,9.5,2.94a35,35,0,0,0,13,3,15.42,15.42,0,0,0,11-4q4.25-4,4.25-10.93V121h-.25q-5.75,8.9-18.13,8.9-13.37,0-20.56-10.47t-7.18-25.65q0-14.79,8.25-25.72T452.5,57.13a21.72,21.72,0,0,1,9.5,2.23,15.54,15.54,0,0,1,7,6.41q1.75-7.84,9-7.85a8.2,8.2,0,0,1,6.5,2.88A11.15,11.15,0,0,1,487,68.39ZM470.47,93.57a29.07,29.07,0,0,0-4.43-16,15.14,15.14,0,0,0-25.37-.15,26.85,26.85,0,0,0-4.59,15.36q0,9.48,4.51,16a14.47,14.47,0,0,0,12.61,6.5A14.69,14.69,0,0,0,466,108.85,25.93,25.93,0,0,0,470.47,93.57Z"/></g></svg>