<svg xmlns="http://www.w3.org/2000/svg" xmlns:xlink="http://www.w3.org/1999/xlink" viewBox="0 0 256 256"><defs><style>.cls-1{fill:#424259;}.cls-2{fill:#333347;}.cls-3{fill:#272738;}.cls-4{fill:url(#radial-gradient);}.cls-5{fill:#603a58;}</style><radialGradient id="radial-gradient" cx="128" cy="128" r="91.39" gradientUnits="userSpaceOnUse"><stop offset="0" stop-color="#bc5383"/><stop offset="1" stop-color="#603a58"/></radialGradient></defs><title>Artboard 4</title><g id="logo"><circle class="cls-1" cx="128" cy="128" r="127.5"/><path class="cls-2" d="M215.5,128c0,36.72,24.48,69.82-.37,93.08a127.53,127.53,0,0,1-32.52,22.17C166.06,251.1,147.54,230.5,128,230.5s-38,20.61-54.57,12.77A128,128,0,0,1,40.75,221c-24.78-23.26-.25-56.31-.25-93,0-40.29-21.31-76.22,7.87-99.58A127.28,127.28,0,0,1,82.51,8.85C96.64,3.46,112,25.5,128,25.5S159.24,3.43,173.33,8.79a127.32,127.32,0,0,1,34.34,19.66C236.83,51.81,215.5,87.73,215.5,128Z"/><path class="cls-3" d="M180.5,128c0,36.72,59.48,69.82,34.63,93.08a127.53,127.53,0,0,1-32.52,22.17C166.06,251.1,147.54,210.5,128,210.5s-38,40.61-54.57,32.77A128,128,0,0,1,40.74,221C16,197.71,75.5,164.66,75.5,128c0-40.29-56.31-76.22-27.13-99.58A127.28,127.28,0,0,1,82.51,8.85C96.64,3.46,112,45.5,128,45.5S159.24,3.43,173.33,8.79a127.47,127.47,0,0,1,34.34,19.66C236.83,51.81,180.5,87.73,180.5,128Z"/><path class="cls-4" d="M56.89,197.9l49.4-77.15L65.87,56.94a23,23,0,0,1-4-12.77q0-9.57,5.36-15.37A17.75,17.75,0,0,1,80.84,23q9.73,0,16.22,10.73L128,84.78l30.94-51.05Q165.42,23,175.16,23a17.75,17.75,0,0,1,13.6,5.8q5.36,5.81,5.36,15.37a23,23,0,0,1-4,12.77l-40.42,63.81,49.4,77.15a27,27,0,0,1,4.25,14.8q0,9-5.37,14.64a18,18,0,0,1-13.6,5.66q-9.48,0-15.47-9.57L128,157.3,87.08,223.43Q81.1,233,71.61,233A18,18,0,0,1,58,227.34q-5.37-5.66-5.37-14.64A27,27,0,0,1,56.89,197.9Z"/><path class="cls-5" d="M199.07,213.32c4.29-4-.88-16.86-.88-16.86l.92,1.44a27,27,0,0,1,4.25,14.8q0,9-5.37,14.64a18,18,0,0,1-13.6,5.66q-9.48,0-15.47-9.57L128,157.3S186.22,223.58,199.07,213.32ZM70.59,48c-5.71,1.43-.09,16.26-.09,16.26l0,0c-.33-.54-4.6-7.28-4.6-7.28a23,23,0,0,1-4-12.77q0-9.57,5.36-15.37A17.75,17.75,0,0,1,80.84,23q9.73,0,16.22,10.73L128,84.78S84.87,45.14,70.59,48Z"/><path class="cls-5" d="M99.7,203h0l-12.62,20.4Q81.1,233,71.61,233A18,18,0,0,1,58,227.34q-5.37-5.66-5.37-14.64a27,27,0,0,1,4.25-14.8l49.4-77.15s-32,74.33-24.9,84.86C86.3,212.16,99.7,203,99.7,203ZM172,36.57c-4.28-7.13-16.13,2.31-16.13,2.31v0h0c.22-.38,3.11-5.13,3.11-5.13Q165.42,23,175.16,23a17.75,17.75,0,0,1,13.6,5.8q5.36,5.81,5.36,15.37a23,23,0,0,1-4,12.77l-40.42,63.81S177.66,49.42,172,36.57Z"/></g></svg>